<?xml version="1.0" encoding="UTF-8"?>
<!DOCTYPE svg PUBLIC "-//W3C//DTD SVG 1.1//EN" "http://www.w3.org/Graphics/SVG/1.1/DTD/svg11.dtd">
<svg xmlns="http://www.w3.org/2000/svg" version="1.1" width="526px" height="526px" style="shape-rendering:geometricPrecision; text-rendering:geometricPrecision; image-rendering:optimizeQuality; fill-rule:evenodd; clip-rule:evenodd" xmlns:xlink="http://www.w3.org/1999/xlink">
<g><path style="opacity:1" fill="#18e7a8" d="M 107.5,-0.5 C 210.833,-0.5 314.167,-0.5 417.5,-0.5C 479.167,9.83333 515.167,45.8333 525.5,107.5C 525.5,210.5 525.5,313.5 525.5,416.5C 515.5,479.167 479.167,515.5 416.5,525.5C 313.833,525.5 211.167,525.5 108.5,525.5C 46.2948,515.628 9.96149,479.628 -0.5,417.5C -0.5,314.167 -0.5,210.833 -0.5,107.5C 9.83333,45.8333 45.8333,9.83333 107.5,-0.5 Z"/></g>
<g><path style="opacity:1" fill="#fbfcfb" d="M 129.5,122.5 C 218.167,122.333 306.834,122.5 395.5,123C 414.558,126.725 425.391,138.225 428,157.5C 428.667,212.5 428.667,267.5 428,322.5C 426.382,343.588 415.216,356.088 394.5,360C 341.167,360.333 287.833,360.667 234.5,361C 200.833,374.167 167.167,387.333 133.5,400.5C 132.479,399.998 132.312,399.332 133,398.5C 141.639,385.695 150.472,373.029 159.5,360.5C 148.515,359.668 137.515,359.168 126.5,359C 109.399,354.332 99.5652,343.165 97,325.5C 96.3333,269.5 96.3333,213.5 97,157.5C 99.8002,138.205 110.634,126.538 129.5,122.5 Z"/></g>
<g><path style="opacity:1" fill="#18e7a8" d="M 171.5,220.5 C 194.16,219.325 204.326,229.992 202,252.5C 196.543,266.482 186.376,271.982 171.5,269C 157.298,263.775 151.465,253.608 154,238.5C 156.683,229.318 162.517,223.318 171.5,220.5 Z"/></g>
<g><path style="opacity:1" fill="#18e7a8" d="M 255.5,220.5 C 269.839,218.084 280.005,223.418 286,236.5C 289.655,252.025 284.155,262.858 269.5,269C 250.763,271.582 240.096,263.582 237.5,245C 238.353,232.989 244.353,224.822 255.5,220.5 Z"/></g>
<g><path style="opacity:1" fill="#18e7a8" d="M 340.5,220.5 C 362.646,219.146 372.813,229.479 371,251.5C 365.494,266.009 354.994,271.842 339.5,269C 323.138,261.603 318.305,249.436 325,232.5C 328.695,226.424 333.862,222.424 340.5,220.5 Z"/></g>
</svg>
